<svg id="Layer_1" data-name="Layer 1" xmlns="http://www.w3.org/2000/svg" viewBox="0 0 200 63.82"><defs><style>.cls-1{fill:#9f1d35;}.cls-2{fill:#ea5c55;}</style></defs><path class="cls-1" d="M80.42,20.55a15.71,15.71,0,1,0,0,26.86,12.69,12.69,0,0,0,1.37-.93A7.56,7.56,0,0,0,88,49.69V34.57h0c0-.19,0-.39,0-.59A15.71,15.71,0,0,0,80.42,20.55ZM72.27,42.13A8.15,8.15,0,1,1,80.42,34,8.15,8.15,0,0,1,72.27,42.13Z"/><path class="cls-1" d="M129.91,25.84V49.69a7.55,7.55,0,0,0,7.56-7.56V18.27A7.57,7.57,0,0,0,129.91,25.84Z"/><path class="cls-2" d="M129.91,7.56V13a7.69,7.69,0,0,0,2.05-.28,7.57,7.57,0,0,0,5.51-7.28V0a7.69,7.69,0,0,0-2.05.28A7.56,7.56,0,0,0,129.91,7.56Z"/><path class="cls-1" d="M109,18.27A15.71,15.71,0,0,0,93.24,34V61.2a7.57,7.57,0,0,0,7.56-7.56V47.42A15.71,15.71,0,1,0,109,18.27Zm0,23.86A8.15,8.15,0,1,1,117.1,34,8.15,8.15,0,0,1,109,42.13Z"/><path class="cls-1" d="M192.79,23.55a7.51,7.51,0,0,0-.35,2.29v9.91a6.39,6.39,0,0,1-12.77,0V25.84a7.54,7.54,0,0,0-7.56-7.56V35.75a13.95,13.95,0,0,0,27.89,0V18.28A7.57,7.57,0,0,0,192.79,23.55Z"/><path class="cls-1" d="M45.33,18.27a8.07,8.07,0,0,0-1.11.07,8.69,8.69,0,0,0-7.49,7.5A8.07,8.07,0,0,0,36.66,27V49.69a7.56,7.56,0,0,0,7.56-7.56V30.73a4.89,4.89,0,0,1,4.89-4.89h4.82A8.67,8.67,0,0,0,45.33,18.27Z"/><path class="cls-1" d="M25.21,21.49a15.7,15.7,0,1,0-1.37,25.92v.71a8.15,8.15,0,0,1-8.15,8.15,8,8,0,0,1-3.72-.9,8.11,8.11,0,0,0-9.38,1.38,15.68,15.68,0,0,0,12.85,7.07h.26a15.69,15.69,0,0,0,15.7-15.7V18.27h0A7.51,7.51,0,0,0,25.21,21.49ZM15.69,42.13A8.15,8.15,0,1,1,23.84,34,8.15,8.15,0,0,1,15.69,42.13Z"/><path class="cls-1" d="M159.8,31.36l9.87-13.08H164a7.54,7.54,0,0,0-6,3l-2.86,3.79h0l-2,2.68-2.72,3.59V7.6a7.6,7.6,0,0,0-7.6-7.6V42.09a7.6,7.6,0,0,0,7.6,7.6h0V43.91l4.73-6.27h0l6.82,9a7.52,7.52,0,0,0,6,3h5.72L159.8,31.36Z"/></svg>